{"title":"Happiness.Runs.2010.DVDRip.XviD-SDTeam","uid":5761311,"size":370695102,"categoryP":"video","categoryS":"movies","magnet":"?xt=urn:btih:8c9d3c378a43bcf26dd1f3e3c8733dc3b9d81057&amp;dn=Happiness.Runs.2010.DVDRip.XviD-SDTeam&amp;tr=udp%3A%2F%2Ftracker.openbittorrent.com%3A80&amp;tr=udp%3A%2F%2Fopen.demonii.com%3A1337&amp;tr=udp%3A%2F%2Ftracker.coppersurfer.tk%3A6969&amp;tr=udp%3A%2F%2Fexodus.desync.com%3A6969","seeders":0,"leechers":0,"uploader":"bg2k9","files":28,"time":1281742593,"description":"GREETZ: UnDeaD - BadGirl2k9 - virusofsaten - foxyb - WICCYWOLF - lizzymwah1\n\nRELEASE NAME: Happiness.Runs.2010.DVDRip.XviD-SDTeam \nRELEASED BY: UnDeaD &amp; BadGirl2k9\nSIZE: 353 MB\n\nLANGUAGE: English\nIMDb: http://www.imdb.com/title/tt1079964/\n\nPLOT: A young man named Victor realizes the shortcomings \nof the Utopian ideals on the hippie commune where he was \nraised. Victor's mother is funding the commune where the \nguru Insley hypnotizes and seduces women with a technique \nhe calls &quot;running.&quot; Insley manipulates the minds of these \nwomen so that they give him their bodies and all their \nworldly possessions. Victor's childhood love, Becky, returns \nto take care of her deathly ill father. Victor, haunted by \nvisions of Becky's death, is desperate to save her and himself \nby escaping from the polygamous cult. Preoccupied with Insley's \nfree love philosophy, the adults of the community overlook the \npainful reality that the self destructive behavior of their \nchildren is most certainly due to early exposure to sex and drugs. \nTo afford an escape, Victor tries to sell weed but is cut out by \nrivals competing for Becky's affection. Finally, Victor is torn \nbetween getting money from his mother who is entirely under Insley's \ninfluence, dealing with the violent drama of his drug-addled friends, \nand staying to save Becky as she spins out of control.  \n\nSCREENS: &lt;a href=&quot;\nhttp://i658.photobucket.com/albums/uu309/BadGirl2k9/screens/vlcsnap-2010-08-13-22h29m37s57.png&quot; rel=&quot;nofollow&quot; target=&quot;_NEW&quot;&gt;\nhttp://i658.photobucket.com/albums/uu309/BadGirl2k9/screens/vlcsnap-2010-08-13-22h29m37s57.png&lt;/a&gt; &lt;a href=&quot;\nhttp://i658.photobucket.com/albums/uu309/BadGirl2k9/screens/vlcsnap-2010-08-13-22h29m48s180.png&quot; rel=&quot;nofollow&quot; target=&quot;_NEW&quot;&gt;\nhttp://i658.photobucket.com/albums/uu309/BadGirl2k9/screens/vlcsnap-2010-08-13-22h29m48s180.png&lt;/a&gt; &lt;a href=&quot;\nhttp://i658.photobucket.com/albums/uu309/BadGirl2k9/screens/vlcsnap-2010-08-13-22h30m21s4.png&quot; rel=&quot;nofollow&quot; target=&quot;_NEW&quot;&gt;\nhttp://i658.photobucket.com/albums/uu309/BadGirl2k9/screens/vlcsnap-2010-08-13-22h30m21s4.png&lt;/a&gt;\n\nGeneral\nFormat                           : AVI\nFormat/Info                      : Audio Video Interleave\nFile size                        : 353 MiB\nDuration                         : 1h 26mn\nOverall bit rate                 : 572 Kbps\nWriting application              : MEncoder SVN-r22963\nWriting library                  : MPlayer\n\nVideo\nID                               : 0\nFormat                           : MPEG-4 Visual\nFormat profile                   : Simple@L3\nFormat settings, BVOP            : No\nFormat settings, QPel            : No\nFormat settings, GMC             : No warppoints\nFormat settings, Matrix          : Default (H.263)\nCodec ID                         : XVID\nCodec ID/Hint                    : XviD\nDuration                         : 1h 26mn\nBit rate                         : 496 Kbps\nWidth                            : 512 pixels\nHeight                           : 288 pixels\nDisplay aspect ratio             : 16:9\nFrame rate                       : 20.000 fps\nResolution                       : 8 bits\nColorimetry                      : 4:2:0\nScan type                        : Progressive\nBits/(Pixel*Frame)               : 0.168\nStream size                      : 307 MiB (87%)\nWriting library                  : XviD 1.1.2 (UTC 2006-11-01)\n\nAudio\nID                               : 1\nFormat                           : MPEG Audio\nFormat version                   : Version 1\nFormat profile                   : Layer 3\nCodec ID                         : 55\nCodec ID/Hint                    : MP3\nDuration                         : 1h 26mn\nBit rate mode                    : Constant\nBit rate                         : 64.0 Kbps\nChannel(s)                       : 2 channels\nSampling rate                    : 44.1 KHz\nStream size                      : 39.6 MiB (11%)\nAlignment                        : Aligned on interleaves\nInterleave, duration             : 26 ms (0.52 video frame)\nInterleave, preload duration     : 522 ms\nWriting library                  : LAMEUUULAME3.97","torrent":{"xt":"urn:btih:8c9d3c378a43bcf26dd1f3e3c8733dc3b9d81057","amp;dn":"Happiness.Runs.2010.DVDRip.XviD-SDTeam","amp;tr":["udp%3A%2F%2Ftracker.openbittorrent.com%3A80","udp%3A%2F%2Fopen.demonii.com%3A1337","udp%3A%2F%2Ftracker.coppersurfer.tk%3A6969","udp%3A%2F%2Fexodus.desync.com%3A6969"],"infoHash":"8c9d3c378a43bcf26dd1f3e3c8733dc3b9d81057","infoHashBuffer":{"type":"Buffer","data":[140,157,60,55,138,67,188,242,109,209,243,227,200,115,61,195,185,216,16,87]},"announce":[],"urlList":[]}}